:FULLY-SPECIFIED
:FORCE-ALL-JOINTS-BE-3DOF
:DEGREES
16
root 0.256764 17.177 -28.1694 4.73797 -2.26515 -0.711631
lfemur -13.869 4.77056 -20.6479
ltibia 68.6227 0 0
lfoot -5.67597 -1.33384 0
ltoes -10.1512 0 0
rfemur -29.0391 -0.803017 22.6976
rtibia 83.0677 0 0
rfoot 1.33193 -5.64373 0
rtoes 1.25125 0 0
lowerback 19.0096 -1.07758 -1.59725
upperback 1.86221 -1.84147 -0.487544
thorax -8.55409 -0.820283 0.856043
lowerneck -2.20379 1.07624 -0.438836
upperneck -14.5325 1.50597 1.00075
head -4.15532 0.741058 0.396383
lclavicle -1.20188e-14 -2.6506e-15 0
lhumerus -23.7951 -17.1942 87.8719
lradius 110.413 0 0
lwrist 29.9249 0 0
lhand -38.1447 10.5757 0
lfingers 7.12502 0 0
lthumb -11.1787 40.255 0
rclavicle -1.20188e-14 -2.6506e-15 0
rhumerus -45.8271 10.1364 -88.4187
rradius 88.8377 0 0
rwrist -1.64623 0 0
rhand -47.4472 39.5536 0
rfingers 7.12502 0 0
rthumb -20.1362 10.5889 0
17
root 0.267763 17.1813 -27.6321 4.74339 -2.67626 -0.962535
lfemur -14.4747 5.34734 -20.0099
ltibia 71.0515 0 0
lfoot -4.545 -1.50151 0
ltoes -10.0556 0 0
rfemur -28.4127 -0.516873 23.2259
rtibia 80.8403 0 0
rfoot 0.308095 -5.67634 0
rtoes 0.603267 0 0
lowerback 18.988 -1.06474 -1.28978
upperback 1.87561 -1.74884 -0.337922
thorax -8.53221 -0.784106 0.819061
lowerneck -2.13003 1.18325 -0.360393
upperneck -14.6758 1.61891 0.725834
head -4.19822 0.804462 0.291281
lclavicle -1.22412e-14 -2.26329e-15 0
lhumerus -25.0111 -16.8908 88.3186
lradius 110.11 0 0
lwrist 30.139 0 0
lhand -38.2293 10.77 0
lfingers 7.12502 0 0
lthumb -11.2603 40.4448 0
rclavicle -1.22412e-14 -2.26329e-15 0
rhumerus -45.0501 10.2908 -88.4295
rradius 89.525 0 0
rwrist -1.72225 0 0
rhand -47.3219 39.4894 0
rfingers 7.12502 0 0
rthumb -20.0157 10.5125 0
18
root 0.278762 17.1857 -27.0949 4.74825 -3.09055 -1.21545
lfemur -15.0867 5.92885 -19.3665
ltibia 73.5011 0 0
lfoot -3.40379 -1.6708 0
ltoes -9.95986 0 0
rfemur -27.7778 -0.229333 23.7587
rtibia 78.5932 0 0
rfoot -0.723099 -5.70941 0
rtoes -0.0480017 0 0
lowerback 18.9661 -1.05173 -0.979682
upperback 1.88932 -1.65531 -0.187079
thorax -8.50984 -0.747585 0.781673
lowerneck -2.05614 1.29107 -0.28138
upperneck -14.8199 1.73266 0.448614
head -4.24121 0.868343 0.185303
lclavicle -1.24637e-14 -1.86588e-15 0
lhumerus -26.2395 -16.5841 88.7695
lradius 109.802 0 0
lwrist 30.3552 0 0
lhand -38.3145 10.9659 0
lfingers 7.12502 0 0
lthumb -11.3425 40.6362 0
rclavicle -1.24637e-14 -1.86588e-15 0
rhumerus -44.2654 10.4461 -88.44
rradius 90.218 0 0
rwrist -1.79866 0 0
rhand -47.1949 39.4243 0
rfingers 7.12502 0 0
rthumb -19.8936 10.4351 0
19
root 0.289761 17.1901 -26.5576 4.75239 -3.50634 -1.46936
lfemur -15.7029 6.51276 -18.7199
ltibia 75.962 0 0
lfoot -2.2567 -1.84109 0
ltoes -9.86444 0 0
rfemur -27.136 0.0582612 24.2937
rtibia 76.3353 0 0
rfoot -1.75734 -5.74286 0
rtoes -0.699544 0 0
lowerback 18.9438 -1.03859 -0.668177
upperback 1.9033 -1.56125 -0.0356185
thorax -8.48703 -0.710855 0.744004
lowerneck -1.9825 1.39924 -0.202127
upperneck -14.9639 1.84674 0.170188
head -4.28407 0.932437 0.0788695
lclavicle -1.2685e-14 -1.45854e-15 0
lhumerus -27.4762 -16.275 89.2229
lradius 109.492 0 0
lwrist 30.5728 0 0
lhand -38.4 11.1626 0
lfingers 7.12502 0 0
lthumb -11.4249 40.8283 0
rclavicle -1.2685e-14 -1.45854e-15 0
rhumerus -43.476 10.6018 -88.45
rradius 90.9139 0 0
rwrist -1.8751 0 0
rhand -47.0666 39.3586 0
rfingers 7.12502 0 0
rthumb -19.7703 10.3569 0
20
root 0.30076 17.1945 -26.0204 4.75568 -3.92194 -1.72324
lfemur -16.3211 7.09675 -18.0729
ltibia 78.4246 0 0
lfoot -1.10807 -2.01176 0
ltoes -9.76987 0 0
rfemur -26.4892 0.344567 24.8289
rtibia 74.0752 0 0
rfoot -2.7903 -5.77658 0
rtoes -1.34835 0 0
lowerback 18.9213 -1.02536 -0.356475
upperback 1.91755 -1.46699 0.115858
thorax -8.46379 -0.674051 0.706184
lowerneck -1.90951 1.50733 -0.122964
upperneck -15.1073 1.96066 -0.108352
head -4.32657 0.996482 -0.0276021
lclavicle -1.2904e-14 -1.04138e-15 0
lhumerus -28.7167 -15.9646 89.6772
lradius 109.18 0 0
lwrist 30.7909 0 0
lhand -38.4853 11.3593 0
lfingers 7.12502 0 0
lthumb -11.5072 41.0205 0
rclavicle -1.2904e-14 -1.04138e-15 0
rhumerus -42.6847 10.7573 -88.4594
rradius 91.6101 0 0
rwrist -1.95123 0 0
rhand -46.9374 39.2924 0
rfingers 7.12502 0 0
rthumb -19.646 10.2782 0
21
root 0.311759 17.1989 -25.4831 4.75797 -4.33566 -1.97609
lfemur -16.9393 7.67852 -17.4277
ltibia 80.8793 0 0
lfoot 0.0377726 -2.18218 0
ltoes -9.67666 0 0
rfemur -25.8392 0.628242 25.3622
rtibia 71.8215 0 0
rfoot -3.81767 -5.81048 0
rtoes -1.99139 0 0
lowerback 18.8985 -1.01208 -0.0457902
upperback 1.93206 -1.37288 0.26675
thorax -8.44016 -0.637309 0.668338
lowerneck -1.83755 1.61489 -0.0442211
upperneck -15.2494 2.07396 -0.385912
head -4.36849 1.06021 -0.133692
lclavicle -1.31194e-14 -6.14562e-16 0
lhumerus -29.9566 -15.654 90.1308
lradius 108.868 0 0
lwrist 31.0087 0 0
lhand -38.5701 11.5552 0
lfingers 7.12502 0 0
lthumb -11.5889 41.2119 0
rclavicle -1.31194e-14 -6.14562e-16 0
rhumerus -41.8943 10.9118 -88.4681
rradius 92.3039 0 0
rwrist -2.0267 0 0
rhand -46.8076 39.2259 0
rfingers 7.12502 0 0
rthumb -19.5213 10.1991 0
22
root 0.322758 17.2032 -24.9459 4.7591 -4.74581 -2.22688
lfemur -17.5552 8.25574 -16.787
ltibia 83.3167 0 0
lfoot 1.17648 -2.35172 0
ltoes -9.58533 0 0
rfemur -25.1878 0.907943 25.8914
rtibia 69.5829 0 0
rfoot -4.83513 -5.84448 0
rtoes -2.62566 0 0
lowerback 18.8756 -0.998783 0.262665
upperback 1.9468 -1.27926 0.416454
thorax -8.41615 -0.600764 0.630594
lowerneck -1.76703 1.72146 0.0337721
upperneck -15.3895 2.18616 -0.661399
head -4.40961 1.12337 -0.238983
lclavicle -1.333e-14 -1.78211e-16 0
lhumerus -31.1917 -15.3442 90.5818
lradius 108.556 0 0
lwrist 31.2254 0 0
lhand -38.654 11.7496 0
lfingers 7.12502 0 0
lthumb -11.6699 41.4018 0
rclavicle -1.333e-14 -1.78211e-16 0
rhumerus -41.1076 11.0646 -88.4759
rradius 92.9923 0 0
rwrist -2.10114 0 0
rhand -46.6777 39.1593 0
rfingers 7.12502 0 0
rthumb -19.3963 10.1199 0
23
root 0.333757 17.2076 -24.4086 4.75894 -5.1507 -2.47461
lfemur -18.1666 8.82609 -16.1533
ltibia 85.7271 0 0
lfoot 2.3037 -2.51978 0
ltoes -9.49638 0 0
rfemur -24.5367 1.18233 26.4146
rtibia 67.3681 0 0
rfoot -5.83836 -5.87849 0
rtoes -3.24815 0 0
lowerback 18.8525 -0.985508 0.567677
upperback 1.96176 -1.18648 0.56437
thorax -8.39179 -0.564552 0.593079
lowerneck -1.69833 1.82662 0.110686
upperneck -15.527 2.29678 -0.933719
head -4.44969 1.18568 -0.343054
lclavicle -1.35345e-14 2.67531e-16 0
lhumerus -32.4176 -15.0361 91.0286
lradius 108.246 0 0
lwrist 31.4404 0 0
lhand -38.7367 11.9416 0
lfingers 7.12502 0 0
lthumb -11.7497 41.5895 0
rclavicle -1.35345e-14 2.67531e-16 0
rhumerus -40.3277 11.2152 -88.4827
rradius 93.6728 0 0
rwrist -2.1742 0 0
rhand -46.5479 39.0929 0
rfingers 7.12502 0 0
rthumb -19.2716 10.0408 0
